<?xml version="1.0" encoding="UTF-8"?>
<svg width="50" height="50" viewBox="0 0 50 50" xmlns="http://www.w3.org/2000/svg">
  <!-- Silver Rum Icon - The BigCane -->
  <title>Silver Rum Icon</title>
  <defs>
    <linearGradient id="silver-gradient" x1="0%" y1="0%" x2="100%" y2="100%">
      <stop offset="0%" stop-color="#e0e0e0" />
      <stop offset="50%" stop-color="#f5f5f5" />
      <stop offset="100%" stop-color="#c0c0c0" />
    </linearGradient>
    <filter id="glow" x="-20%" y="-20%" width="140%" height="140%">
      <feGaussianBlur in="SourceGraphic" stdDeviation="2" result="blur" />
      <feColorMatrix in="blur" mode="matrix" values="1 0 0 0 0  0 1 0 0 0  0 0 2 0 0  0 0 0 18 -7" result="glow" />
      <feComposite in="SourceGraphic" in2="glow" operator="atop"/>
    </filter>
    <filter id="highlight" x="-20%" y="-20%" width="140%" height="140%">
      <feSpecularLighting result="specOut" specularExponent="20" lighting-color="#05D9E8">
        <fePointLight x="250" y="50" z="300" />
      </feSpecularLighting>
      <feComposite in="SourceGraphic" in2="specOut" operator="arithmetic" k1="0" k2="1" k3="1" k4="0" />
    </filter>
  </defs>
  
  <!-- Base Bottle Shape -->
  <path d="M30,10 L30,5 C30,3.895 29.105,3 28,3 L22,3 C20.895,3 20,3.895 20,5 L20,10 L17,15 C16.5,16 16,17 16,18 L16,44 C16,45.657 18.239,47 21,47 L29,47 C31.761,47 34,45.657 34,44 L34,18 C34,17 33.5,16 33,15 L30,10 Z" 
        fill="url(#silver-gradient)" 
        stroke="#05D9E8" 
        stroke-width="0.5" 
        filter="url(#glow)" />
  
  <!-- Bottle Neck -->
  <path d="M22,3 L28,3 C29.105,3 30,3.895 30,5 L30,10 L20,10 L20,5 C20,3.895 20.895,3 22,3 Z" 
        fill="#f5f5f5" 
        stroke="#05D9E8" 
        stroke-width="0.5" />
  
  <!-- Bottle Cap -->
  <rect x="21" y="1" width="8" height="2" rx="1" fill="#05D9E8" />
  
  <!-- Label -->
  <rect x="18" y="20" width="14" height="18" rx="2" fill="#1A0B2E" stroke="#05D9E8" stroke-width="0.5" />
  
  <!-- BigCane Logo on Label -->
  <text x="25" y="30" font-family="Arial" font-size="3" text-anchor="middle" fill="#05D9E8">THE</text>
  <text x="25" y="34" font-family="Arial" font-weight="bold" font-size="5" text-anchor="middle" fill="#05D9E8">BIG CANE</text>
  <text x="25" y="37" font-family="Arial" font-size="2.5" text-anchor="middle" fill="#05D9E8">SILVER RUM</text>
  
  <!-- Highlights -->
  <path d="M18,26 Q25,24 32,26" fill="none" stroke="#05D9E8" stroke-width="0.2" opacity="0.5" />
  <path d="M22,12 L28,12 L28,15 Q25,14 22,15 L22,12 Z" fill="#f0f0f0" opacity="0.3" />
  
  <!-- Reflection -->
  <path d="M18,42 Q25,41 32,42" fill="none" stroke="white" stroke-width="0.3" opacity="0.5" />
</svg>